<svg xmlns="http://www.w3.org/2000/svg" width="83.78" height="106.437" viewBox="0 0 83.78 106.437">
  <g id="couple-sharing-reading-a-newspaper-together" transform="translate(-19.812 0)">
    <path id="Path_29" data-name="Path 29" d="M103.592,63.93a8.421,8.421,0,0,0-4.958-7.643c1.97-8.772,3.625-14.948,3.638-15.008a1.869,1.869,0,0,0-2-2.352c-1.013.1-24.519,2.709-38.4,18.37C47.91,42.186,24.2,39.055,23.17,38.93a1.847,1.847,0,0,0-1.643.63,1.867,1.867,0,0,0-.4,1.715c.014.064,1.665,6.236,3.64,15a8.385,8.385,0,0,0,3.266,16.037c1,5.5,1.837,10.675,2.42,15.285A1.9,1.9,0,0,0,31.7,89.138c.2.07,19.338,6.838,27.968,16.664a1.894,1.894,0,0,0,1.412.634c.178,0,.331-.136.5-.188.036.014.054.059.087.066a1.77,1.77,0,0,0,.667.122,1.874,1.874,0,0,0,1.412-.634c8.625-9.826,27.764-16.594,27.966-16.664A1.9,1.9,0,0,0,92.959,87.6c.592-4.711,1.42-9.875,2.417-15.285A8.409,8.409,0,0,0,103.592,63.93Zm-80.028,0a4.688,4.688,0,1,1,4.688,4.683A4.689,4.689,0,0,1,23.564,63.93ZM34.035,86c-.585-4.4-1.377-9.268-2.319-14.415a8.389,8.389,0,0,0-3.269-16.051c-1.2-5.334-2.284-9.746-2.963-12.406,6.807,1.32,24.528,5.79,34.782,17.956.124.146.324.125.481.223l-.272,40.041C51.965,93.163,38.067,87.516,34.035,86Zm30.2,14.05.275-40.111c10.243-11.7,26.918-15.7,33.426-16.862-.672,2.658-1.769,7.089-2.97,12.451A8.389,8.389,0,0,0,91.687,71.58C90.75,76.653,89.963,81.517,89.371,86,85.549,87.436,72.8,92.557,64.233,100.05ZM95.152,68.613a4.687,4.687,0,1,1,4.686-4.683A4.688,4.688,0,0,1,95.152,68.613ZM55.608,42.83c.2,0,.328-.153.511-.214A14.56,14.56,0,0,0,57.946,44.4a15.275,15.275,0,0,0,9.462,3.31,15.186,15.186,0,0,0,9.54-27.005A21.385,21.385,0,1,0,55.608,42.83Zm20.748-3.184a11.686,11.686,0,0,1-16.074,1.826,11.477,11.477,0,0,1-1.826-16.1,11.431,11.431,0,0,1,16.075-1.817A11.474,11.474,0,0,1,76.356,39.646ZM55.608,3.75a17.658,17.658,0,0,1,17.36,14.661A15.11,15.11,0,0,0,53.683,38.88,17.615,17.615,0,0,1,55.608,3.75Z" transform="translate(0)" fill="#3cb2aa"/>
  </g>
</svg>
