<svg xmlns="http://www.w3.org/2000/svg" width="77.25" height="50.888" viewBox="0 0 77.25 50.888">
  <g id="Group_15" data-name="Group 15" transform="translate(-586.077 -337)">
    <g id="Group_12" data-name="Group 12" transform="translate(587.077 345.823)">
      <path id="Path_9" data-name="Path 9" d="M591.043,406.761l-.018-.028a25.183,25.183,0,0,1-3.948-13.537v-9.9a2.908,2.908,0,0,1,1.625-2.646c.937-.44,2.12-.44,3.113,1.322v7.491" transform="translate(-587.077 -365.231)" fill="none" stroke="#fff" stroke-miterlimit="10" stroke-width="2"/>
      <path id="Path_10" data-name="Path 10" d="M615.752,375.117V355.591a3.315,3.315,0,0,1,1.293-2.671,2.107,2.107,0,0,1,2.232-.3,2.673,2.673,0,0,1,1.542,2.462V378.2a4.439,4.439,0,0,0,4.627,4.186h7.712s4.406,2.424.22,5.949l-7.051.22a5.869,5.869,0,0,0-3.966,2.2c-1.983,2.2-7.05,1.763-7.05,1.763" transform="translate(-599.999 -352.424)" fill="none" stroke="#fff" stroke-miterlimit="10" stroke-width="2"/>
      <path id="Path_11" data-name="Path 11" d="M595.812,380.915v-1.671a3.106,3.106,0,0,1,1.51-2.706c2.181-1.255,4.218,1.073,4.218,1.073v7.932" transform="translate(-591.075 -363.289)" fill="none" stroke="#fff" stroke-miterlimit="10" stroke-width="2"/>
      <path id="Path_12" data-name="Path 12" d="M611.662,376.8s-2.2-3.525-5.288.44" transform="translate(-595.908 -362.918)" fill="none" stroke="#fff" stroke-miterlimit="10" stroke-width="2"/>
    </g>
    <g id="Group_13" data-name="Group 13" transform="translate(627.143 345.823)">
      <path id="Path_13" data-name="Path 13" d="M717.864,406.761l.018-.028A25.181,25.181,0,0,0,721.83,393.2v-9.9a2.907,2.907,0,0,0-1.625-2.646c-.936-.44-2.12-.44-3.112,1.322v7.491" transform="translate(-686.646 -365.231)" fill="none" stroke="#fff" stroke-miterlimit="10" stroke-width="2"/>
      <path id="Path_14" data-name="Path 14" d="M680.384,375.117V355.591a3.316,3.316,0,0,0-1.294-2.671,2.107,2.107,0,0,0-2.232-.3,2.673,2.673,0,0,0-1.542,2.462V378.2a4.439,4.439,0,0,1-4.627,4.186h-7.712s-4.407,2.424-.22,5.949l7.05.22a5.87,5.87,0,0,1,3.966,2.2c1.983,2.2,7.05,1.763,7.05,1.763" transform="translate(-660.953 -352.424)" fill="none" stroke="#fff" stroke-miterlimit="10" stroke-width="2"/>
      <path id="Path_15" data-name="Path 15" d="M712.259,380.915v-1.671a3.106,3.106,0,0,0-1.51-2.706c-2.182-1.255-4.218,1.073-4.218,1.073v7.932" transform="translate(-681.812 -363.289)" fill="none" stroke="#fff" stroke-miterlimit="10" stroke-width="2"/>
      <path id="Path_16" data-name="Path 16" d="M696.781,376.8s2.2-3.525,5.288.44" transform="translate(-677.35 -362.918)" fill="none" stroke="#fff" stroke-miterlimit="10" stroke-width="2"/>
    </g>
    <path id="Path_17" data-name="Path 17" d="M633.171,364v4.186H636.7" transform="translate(-21.095 -11.899)" fill="none" stroke="#fff" stroke-miterlimit="10" stroke-width="2"/>
    <path id="Path_18" data-name="Path 18" d="M671.968,368.135h4.186v-3.525" transform="translate(-38.851 -12.178)" fill="none" stroke="#fff" stroke-miterlimit="10" stroke-width="2"/>
    <path id="Path_19" data-name="Path 19" d="M676.712,342.186V338h-3.525" transform="translate(-39.409)" fill="none" stroke="#fff" stroke-miterlimit="10" stroke-width="2"/>
    <path id="Path_20" data-name="Path 20" d="M637.357,338.609h-4.186v3.525" transform="translate(-21.095 -0.279)" fill="none" stroke="#fff" stroke-miterlimit="10" stroke-width="2"/>
    <g id="Group_14" data-name="Group 14" transform="translate(620.338 344.5)">
      <circle id="Ellipse_3" data-name="Ellipse 3" cx="2.864" cy="2.864" r="2.864" transform="translate(1.763 0)" fill="none" stroke="#fff" stroke-miterlimit="10" stroke-width="2"/>
      <path id="Path_21" data-name="Path 21" d="M648.405,363.7s0-3.305,2.644-3.966" transform="translate(-648.405 -354.446)" fill="none" stroke="#fff" stroke-miterlimit="10" stroke-width="2"/>
      <path id="Path_22" data-name="Path 22" d="M663.051,363.7s-.22-3.305-2.864-3.966" transform="translate(-653.797 -354.446)" fill="none" stroke="#fff" stroke-miterlimit="10" stroke-width="2"/>
    </g>
  </g>
</svg>
