<svg id="Group_2056" data-name="Group 2056" xmlns="http://www.w3.org/2000/svg" width="198.536" height="198.536" viewBox="0 0 198.536 198.536">
  <circle id="Ellipse_6" data-name="Ellipse 6" cx="99.268" cy="99.268" r="99.268" transform="translate(0 0)" fill="#131313"/>
  <g id="apple" transform="translate(25.347 11.481)">
    <g id="Group_75" data-name="Group 75" transform="translate(0 0)">
      <path id="Path_161" data-name="Path 161" d="M112.205,63.155V61.242l-.8-.478c-7.174-3.826-10.522-9.247-10.522-16.58A17.807,17.807,0,0,1,108.539,29.2l1.913-.956-1.275-1.594c-3.188-3.986-8.609-9.406-17.058-9.406a12.363,12.363,0,0,0-4.593.983,20.253,20.253,0,0,0,5.39-14.055,20.332,20.332,0,0,0-.159-3.029V.661L92.6.183c-.159-.319-.319-.8-.8-.956a1.8,1.8,0,0,0-1.275-.159C82.075,1.458,73.147,8.154,73.147,19.951c0,.68,0,1.361.073,2.114a15.594,15.594,0,0,1-3.9-1.795c-2.232-1.275-4.623-2.71-8.29-2.71-16.1,0-27.262,14.667-27.262,27.74,0,7.174,2.232,19.609,8.609,31.088,4.942,8.928,10.681,13.551,16.74,13.551,2.232,0,4.464-.8,7.015-1.594a21.2,21.2,0,0,1,8.29-2.072c2.391,0,4.783.956,7.174,1.754s4.942,1.754,7.493,1.754c12.594,0,23.276-15.783,23.276-25.667C112.365,63.793,112.205,63.474,112.205,63.155ZM89.567,2.733a2.7,2.7,0,0,1,0,1.594c0,10.841-8.131,15.624-13.232,17.537a9.151,9.151,0,0,1-.159-1.913C76.176,10.7,82.871,5.125,89.567,2.733Zm19.609,60.74v.478c0,11.957-12.435,22.479-20.087,22.479a20.592,20.592,0,0,1-6.536-1.594,25.107,25.107,0,0,0-8.29-1.913,24.733,24.733,0,0,0-9.406,2.232,18.467,18.467,0,0,1-5.739,1.594c-6.058,0-11-6.377-13.87-11.8-6.058-11-8.29-22.8-8.29-29.653,0-14.508,12.754-24.551,24.073-24.551,2.71,0,4.623,1.116,6.855,2.391s4.464,2.551,7.652,2.551c4.145,0,7.493-1.594,10.363-3.029,2.391-1.116,4.3-2.072,6.377-2.072,6.218,0,10.522,3.348,13.551,6.855a20.712,20.712,0,0,0-7.971,16.74c0,8.29,3.667,14.508,11.319,18.812Q109.176,63.235,109.176,63.474Z" transform="translate(-33.769 0.999)" fill="#fff"/>
    </g>
  </g>
  <g id="android" transform="translate(90.194 88.143)">
    <g id="Group_76" data-name="Group 76" transform="translate(0 0)">
      <path id="Path_162" data-name="Path 162" d="M143,7.933a46.123,46.123,0,0,0,3.525-3.77,2,2,0,0,0,0-2.773,1.966,1.966,0,0,0-2.774,0,46.726,46.726,0,0,1-3.814,4.047A23.334,23.334,0,0,0,124.3,1.715,26.352,26.352,0,0,0,114.156,4.8c-.96-1.252-1.876-2.538-2.779-3.83a2,2,0,0,0-2.682-.7,1.967,1.967,0,0,0-.7,2.682q1.41,2.015,2.893,3.972c-.446-.588-6.259,6.787-6.681,7.511-1.23,2.1-5.334,10.18-2.785,12.17,1.089.85,3.25.252,4.565.258,2.047.009,4.1.082,6.142.134,4.2.107,8.4.248,12.6.374,8.274.248,16.551.472,24.827.41a1.809,1.809,0,0,0,1.813-1.391,1.957,1.957,0,0,0,.242-1.417C150.288,18.154,147.374,12.152,143,7.933ZM105.081,22.918C106.8,13.537,114.805,6.9,124.3,5.634c12.554-1.675,20.228,7.165,23.042,18.219C133.249,23.877,119.169,23.159,105.081,22.918Z" transform="translate(-85.689 0)" fill="#fff"/>
      <path id="Path_163" data-name="Path 163" d="M149.272,157.013c-15.36-.007-30.718-.157-46.078-.164a1.8,1.8,0,0,0-1.834,1.463,1.978,1.978,0,0,0-.453,1.152c-.738,9.791-.232,19.609-.654,29.411a2.029,2.029,0,0,0,.039.493,2.137,2.137,0,0,0,.031.355,8.643,8.643,0,0,0,9.38,7.216c-.675.044.035,11.543.109,12.262.258,2.513.876,5.343,3.473,6.4,2.99,1.214,6.534-.487,8.5-2.765,3.539-4.107,3.223-10.33,2.925-15.389.968-.04,1.938-.054,2.907-.059-.668,0-.526,10.869-.295,11.924,1.029,4.722,5.532,8.089,10.216,6.288,4.562-1.755,5.576-6.1,5.368-10.507-.118-2.493-.186-5.069-.473-7.547a8.45,8.45,0,0,0,4.306-1.5c2.139-1.564,2.958-3.968,3.189-6.517a3.043,3.043,0,0,0,0-.326c.789-9.842,1.112-19.7,1.14-29.571A1.929,1.929,0,0,0,149.272,157.013ZM146,189.2a2.009,2.009,0,0,0,.006.3c0,.012,0,.02-.006.031-.321,3.5-2.876,4.364-6.046,4.085-1.778-.156-2.285,1.749-1.554,2.963.678,5.332,2.89,14.269-3.774,15.806-6.478-2.009-3.1-11.793-3-16.808a1.867,1.867,0,0,0-2.4-1.838c-1.823.393-4.325-.286-6.259-.123a2.627,2.627,0,0,0-.412.071,1.74,1.74,0,0,0-1.876,1.89c.252,4.691,2.332,15.62-4.575,16.34-.058.006-.108.024-.164.034-5.033-2.638-2.166-12.7-2.287-17.19a1.9,1.9,0,0,0-1.885-1.885,2.1,2.1,0,0,0-.76-.006,7.606,7.606,0,0,1-4.572-.285c-1.435-.687-1.969-2.166-2.272-3.624,0-.029.011-.054.012-.083.4-9.364-.029-18.744.574-28.1,14.128.015,28.256.133,42.383.151C147.08,170.365,146.757,179.791,146,189.2Z" transform="translate(-85.407 -127.277)" fill="#fff"/>
      <path id="Path_164" data-name="Path 164" d="M388.461,139.35a2.086,2.086,0,0,0-.567-.524,6.457,6.457,0,0,0-3.9-.936,2.251,2.251,0,0,0-.68-.149,5.361,5.361,0,0,0-5.811,4.544,2.529,2.529,0,0,0-.034.485,1.988,1.988,0,0,0-.2.854c-.147,7.582-.118,15.149.49,22.712,0,.02.008.035.01.055a2.329,2.329,0,0,0-.01.272,6.738,6.738,0,0,0,2.5,5.346,6.97,6.97,0,0,0,5.382.819c.046,0,.093-.014.14-.022l.018,0,.009,0a2.475,2.475,0,0,0,.623-.194,6.689,6.689,0,0,0,3.516-4.767,2.374,2.374,0,0,0,.049-.406c0-.039.017-.075.02-.116.733-9,1.808-18.41-1.049-27.155A1.98,1.98,0,0,0,388.461,139.35Zm-2.211,26.52c-.055.3-.126.664-.229,1.033-.295,1.057-.844,2.185-1.991,2.2-4.347.071-2.786-16.9-2.884-19.746-.065-1.924-.836-5.682.763-7.223,4.165-4.012,4.781,6.806,4.877,8.38A66.683,66.683,0,0,1,386.25,165.869Z" transform="translate(-310.133 -111.764)" fill="#fff"/>
      <path id="Path_165" data-name="Path 165" d="M25.4,142.163c-4.2,1.875-3.838,6.483-3.87,10.343-.05,5.908.142,11.823.579,17.714,0,.02.008.035.01.056a2.317,2.317,0,0,0-.01.271c.475,7.48,10.532,8.859,12.185,1.176a2.271,2.271,0,0,0,.049-.406c0-.039.018-.075.021-.116.732-9,1.808-18.41-1.05-27.155C32.166,140.538,28,141,25.4,142.163Zm5.076,28.652a8.315,8.315,0,0,1-.244.872c-.014.028-.027.056-.047.1a4.974,4.974,0,0,1-.3.511q-.2.287-.049.066a3.771,3.771,0,0,1-.377.371l-.12.081c-.048.033-.1.053-.154.081-.029,0-.056,0-.084.009a3.161,3.161,0,0,1-2.343-.272,3.2,3.2,0,0,1-.731-2.086c0-.012,0-.021-.006-.034a2.1,2.1,0,0,0,.006-.292c-.48-5.822-.344-11.6-.526-17.428-.057-1.817-.816-5.479.833-6.86,4.325-3.622,4.716,7.011,4.825,8.708C31.515,160.038,30.918,165.439,30.474,170.815Z" transform="translate(-21.52 -114.668)" fill="#fff"/>
      <path id="Path_166" data-name="Path 166" d="M170.1,72.789c-2.529,0-2.529,3.921,0,3.921S172.625,72.789,170.1,72.789Z" transform="translate(-140.545 -59.065)" fill="#fff"/>
      <path id="Path_167" data-name="Path 167" d="M288.822,71.921a1.962,1.962,0,0,0,0,3.921A1.962,1.962,0,0,0,288.822,71.921Z" transform="translate(-236.886 -58.361)" fill="#fff"/>
    </g>
  </g>
</svg>
