<svg id="Group_2058" data-name="Group 2058" xmlns="http://www.w3.org/2000/svg" width="198.536" height="198.536" viewBox="0 0 198.536 198.536">
  <circle id="Ellipse_11" data-name="Ellipse 11" cx="99.268" cy="99.268" r="99.268" fill="#131313"/>
  <g id="intellectual" transform="translate(41.649 41.62)">
    <g id="Group_92" data-name="Group 92" transform="translate(73.029 46.119)">
      <g id="Group_91" data-name="Group 91">
        <path id="Path_181" data-name="Path 181" d="M346.305,235.26l-.027-35.061a8.177,8.177,0,0,0-16.229-1.414l-4.534,25.694a7.338,7.338,0,0,0-5.2,1.284l-15.467,10.879a1.918,1.918,0,0,0-.816,1.572v21.072a1.922,1.922,0,0,0,1.922,1.922h19.216a1.922,1.922,0,0,0,1.922-1.922v-2.431L339.74,248.8A16.258,16.258,0,0,0,346.305,235.26Zm-8.669,10.323h0l-13.5,8.6a1.923,1.923,0,0,0-.889,1.621v1.564H307.873V239.211l14.65-10.305a3.53,3.53,0,0,1,4.149,5.712l-10.345,7.758,2.306,3.074,10.345-7.758a7.373,7.373,0,0,0,.789-11.112,7.7,7.7,0,0,0-.622-.557l4.689-26.57a4.333,4.333,0,0,1,8.6.75l.027,35.059A12.385,12.385,0,0,1,337.636,245.583Z" transform="translate(-304.03 -192.029)" fill="#fff"/>
      </g>
    </g>
    <g id="Group_94" data-name="Group 94" transform="translate(0 46.117)">
      <g id="Group_93" data-name="Group 93" transform="translate(0)">
        <path id="Path_182" data-name="Path 182" d="M41.466,236.637,26,225.757a7.339,7.339,0,0,0-5.2-1.284l-4.534-25.694A8.177,8.177,0,0,0,.034,200.193L.007,235.256a16.267,16.267,0,0,0,6.6,13.564l12.612,8.029v2.431a1.922,1.922,0,0,0,1.922,1.922H40.361a1.922,1.922,0,0,0,1.922-1.922V238.208A1.919,1.919,0,0,0,41.466,236.637ZM38.44,257.359H23.067v-1.564a1.924,1.924,0,0,0-.889-1.621L8.716,245.6A12.394,12.394,0,0,1,3.85,235.258L3.878,200.2a4.333,4.333,0,0,1,8.6-.75l4.689,26.57a7.69,7.69,0,0,0-.622.557,7.374,7.374,0,0,0,.789,11.112l10.345,7.758,2.306-3.074L19.64,234.612a3.531,3.531,0,0,1,4.149-5.712l14.65,10.305v18.153Z" transform="translate(0 -192.022)" fill="#fff"/>
      </g>
    </g>
    <g id="Group_96" data-name="Group 96" transform="translate(57.534 0)">
      <g id="Group_95" data-name="Group 95" transform="translate(0 0)">
        <path id="Path_183" data-name="Path 183" d="M239.646.029h-.121l.121,3.843a36.885,36.885,0,0,1,7.007.671l.734-3.772A40.667,40.667,0,0,0,239.646.029Z" transform="translate(-239.525 -0.029)" fill="#fff"/>
      </g>
    </g>
    <g id="Group_98" data-name="Group 98" transform="translate(42.101 0.792)">
      <g id="Group_97" data-name="Group 97">
        <path id="Path_184" data-name="Path 184" d="M182.838,3.326a40.043,40.043,0,0,0-7.563,2.316l1.482,3.545a36.3,36.3,0,0,1,6.836-2.092Z" transform="translate(-175.275 -3.326)" fill="#fff"/>
      </g>
    </g>
    <g id="Group_100" data-name="Group 100" transform="translate(77.958 66.157)">
      <g id="Group_99" data-name="Group 99">
        <path id="Path_185" data-name="Path 185" d="M330.08,275.451A36.759,36.759,0,0,1,324.552,280l2.141,3.192a40.7,40.7,0,0,0,6.105-5.021Z" transform="translate(-324.552 -275.451)" fill="#fff"/>
      </g>
    </g>
    <g id="Group_102" data-name="Group 102" transform="translate(71.513 3.01)">
      <g id="Group_101" data-name="Group 101">
        <path id="Path_186" data-name="Path 186" d="M299.18,12.561l-1.46,3.554a36.575,36.575,0,0,1,6.318,3.354l2.126-3.2A40.291,40.291,0,0,0,299.18,12.561Z" transform="translate(-297.72 -12.561)" fill="#fff"/>
      </g>
    </g>
    <g id="Group_104" data-name="Group 104" transform="translate(93.473 40.191)">
      <g id="Group_103" data-name="Group 103">
        <path id="Path_187" data-name="Path 187" d="M389.835,167.513a36.876,36.876,0,0,1-.693,7.121l3.77.745a40.707,40.707,0,0,0,.767-7.866v-.163Z" transform="translate(-389.142 -167.35)" fill="#fff"/>
      </g>
    </g>
    <g id="Group_106" data-name="Group 106" transform="translate(83.377 11.714)">
      <g id="Group_105" data-name="Group 105">
        <path id="Path_188" data-name="Path 188" d="M349.819,48.8l-2.708,2.727a36.834,36.834,0,0,1,4.565,5.513l3.185-2.151A40.649,40.649,0,0,0,349.819,48.8Z" transform="translate(-347.111 -48.798)" fill="#fff"/>
      </g>
    </g>
    <g id="Group_108" data-name="Group 108" transform="translate(64.815 74.085)">
      <g id="Group_107" data-name="Group 107">
        <path id="Path_189" data-name="Path 189" d="M276.678,308.455a36.31,36.31,0,0,1-6.841,2.078l.749,3.77a40.161,40.161,0,0,0,7.567-2.3Z" transform="translate(-269.837 -308.455)" fill="#fff"/>
      </g>
    </g>
    <g id="Group_110" data-name="Group 110" transform="translate(91.342 24.761)">
      <g id="Group_109" data-name="Group 109">
        <path id="Path_190" data-name="Path 190" d="M383.816,103.111l-3.545,1.486a36.338,36.338,0,0,1,2.1,6.835l3.766-.762A40.243,40.243,0,0,0,383.816,103.111Z" transform="translate(-380.271 -103.111)" fill="#fff"/>
      </g>
    </g>
    <g id="Group_112" data-name="Group 112" transform="translate(88.025 54.32)">
      <g id="Group_111" data-name="Group 111">
        <path id="Path_191" data-name="Path 191" d="M369.837,226.17a36.575,36.575,0,0,1-3.375,6.308l3.2,2.136a40.464,40.464,0,0,0,3.73-6.972Z" transform="translate(-366.462 -226.17)" fill="#fff"/>
      </g>
    </g>
    <g id="Group_114" data-name="Group 114" transform="translate(49.831 76.178)">
      <g id="Group_113" data-name="Group 113">
        <path id="Path_192" data-name="Path 192" d="M215.279,317.857a36.785,36.785,0,0,1-7.083-.687l-.741,3.772a40.716,40.716,0,0,0,7.824.758h.04Z" transform="translate(-207.455 -317.17)" fill="#fff"/>
      </g>
    </g>
    <g id="Group_116" data-name="Group 116" transform="translate(24.137 60.689)">
      <g id="Group_115" data-name="Group 115">
        <path id="Path_193" data-name="Path 193" d="M103.676,252.685l-3.19,2.145a40.7,40.7,0,0,0,5.029,6.1l2.714-2.721A36.778,36.778,0,0,1,103.676,252.685Z" transform="translate(-100.486 -252.685)" fill="#fff"/>
      </g>
    </g>
    <g id="Group_118" data-name="Group 118" transform="translate(29.045 6.859)">
      <g id="Group_117" data-name="Group 117">
        <path id="Path_194" data-name="Path 194" d="M127.014,28.584a40.577,40.577,0,0,0-6.1,5.036l2.725,2.71a36.723,36.723,0,0,1,5.517-4.557Z" transform="translate(-120.919 -28.584)" fill="#fff"/>
      </g>
    </g>
    <g id="Group_120" data-name="Group 120" transform="translate(17.301 32.572)">
      <g id="Group_119" data-name="Group 119">
        <path id="Path_195" data-name="Path 195" d="M72.779,135.631a40.725,40.725,0,0,0-.75,7.782v.081l3.843-.081a36.865,36.865,0,0,1,.678-7.047Z" transform="translate(-72.029 -135.631)" fill="#fff"/>
      </g>
    </g>
    <g id="Group_122" data-name="Group 122" transform="translate(20.326 18.017)">
      <g id="Group_121" data-name="Group 121">
        <path id="Path_196" data-name="Path 196" d="M88.338,75.037a40.354,40.354,0,0,0-3.716,6.98l3.554,1.464a36.379,36.379,0,0,1,3.361-6.314Z" transform="translate(-84.622 -75.037)" fill="#fff"/>
      </g>
    </g>
    <g id="Group_124" data-name="Group 124" transform="translate(18.085 47.55)">
      <g id="Group_123" data-name="Group 123">
        <path id="Path_197" data-name="Path 197" d="M79.058,197.986l-3.768.754A40.139,40.139,0,0,0,77.6,206.3l3.547-1.479A36.35,36.35,0,0,1,79.058,197.986Z" transform="translate(-75.29 -197.986)" fill="#fff"/>
      </g>
    </g>
    <g id="Group_126" data-name="Group 126" transform="translate(35.283 70.748)">
      <g id="Group_125" data-name="Group 125">
        <path id="Path_198" data-name="Path 198" d="M149.022,294.564l-2.134,3.2a40.388,40.388,0,0,0,6.976,3.723l1.467-3.552A36.46,36.46,0,0,1,149.022,294.564Z" transform="translate(-146.888 -294.564)" fill="#fff"/>
      </g>
    </g>
    <g id="Group_128" data-name="Group 128" transform="translate(28.83 7.686)">
      <g id="Group_127" data-name="Group 127">
        <path id="Path_199" data-name="Path 199" d="M177.675,57.01c0-5.9-3.665-12.225-9.712-13.294a12.827,12.827,0,0,0-12.618-11.687,12.627,12.627,0,0,0-6.494,1.791,12.628,12.628,0,0,0-6.494-1.791,13.227,13.227,0,0,0-12.988,12.094,13.347,13.347,0,0,0-9.343,12.887A13.69,13.69,0,0,0,122.38,64.7a13.69,13.69,0,0,0-2.354,7.686c0,5.9,3.665,12.225,9.712,13.294a12.827,12.827,0,0,0,12.618,11.687,12.628,12.628,0,0,0,6.494-1.791,12.628,12.628,0,0,0,6.494,1.791A13.227,13.227,0,0,0,168.332,85.27a13.347,13.347,0,0,0,9.343-12.887A13.69,13.69,0,0,0,175.32,64.7,13.691,13.691,0,0,0,177.675,57.01Zm-30.746-7.686a3.843,3.843,0,1,1-7.686,0H135.4a7.7,7.7,0,0,0,7.686,7.686,7.6,7.6,0,0,0,3.843-1.069V92.213a8.812,8.812,0,0,1-4.572,1.308,8.987,8.987,0,0,1-8.734-8,7.667,7.667,0,0,0-2.067-15.055V74.3a3.843,3.843,0,1,1,0,7.686c-4.6,0-7.686-4.968-7.686-9.608a9.821,9.821,0,0,1,2.382-6.429,1.919,1.919,0,0,0,0-2.515,9.821,9.821,0,0,1-2.382-6.429,9.455,9.455,0,0,1,7.692-9.464,2.1,2.1,0,0,0,1.585-2.065,9.426,9.426,0,0,1,9.21-9.608,8.81,8.81,0,0,1,4.572,1.308Zm24.52,16.63a9.821,9.821,0,0,1,2.382,6.429,9.455,9.455,0,0,1-7.692,9.464,2.1,2.1,0,0,0-1.585,2.065,9.426,9.426,0,0,1-9.21,9.608,8.81,8.81,0,0,1-4.572-1.308V70.462a3.843,3.843,0,1,1,7.686,0H162.3a7.7,7.7,0,0,0-7.686-7.686,7.6,7.6,0,0,0-3.843,1.069V37.18a8.812,8.812,0,0,1,4.572-1.308,8.987,8.987,0,0,1,8.734,8,7.667,7.667,0,0,0,2.067,15.055V55.088a3.843,3.843,0,0,1,0-7.686c4.6,0,7.686,4.968,7.686,9.608a9.821,9.821,0,0,1-2.382,6.429A1.918,1.918,0,0,0,171.449,65.954Z" transform="translate(-120.025 -32.029)" fill="#fff"/>
      </g>
    </g>
  </g>
</svg>
