<svg xmlns="http://www.w3.org/2000/svg" width="43.642" height="48.588" viewBox="0 0 43.642 48.588">
  <g id="Group_28" data-name="Group 28" transform="translate(-610 -839.553)">
    <g id="Group_17" data-name="Group 17" transform="translate(610.749 857.006)">
      <g id="Group_16" data-name="Group 16" transform="translate(0)">
        <path id="Path_23" data-name="Path 23" d="M614.622,877.664a1.547,1.547,0,0,0-2.026.779c-.312.78-.623,1.559-.935,2.494a1.693,1.693,0,0,0,1.091,1.87h.468a1.578,1.578,0,0,0,1.4-.935,9.02,9.02,0,0,1,.78-2.182A1.547,1.547,0,0,0,614.622,877.664Z" transform="translate(-611.631 -877.544)" fill="#fff"/>
      </g>
    </g>
    <g id="Group_19" data-name="Group 19" transform="translate(610 865.697)">
      <g id="Group_18" data-name="Group 18" transform="translate(0 0)">
        <path id="Path_24" data-name="Path 24" d="M613.74,901.607a15.659,15.659,0,0,1-.623-3.741,1.826,1.826,0,0,0-1.714-1.4,1.7,1.7,0,0,0-1.4,1.714,21.091,21.091,0,0,0,.623,4.52,1.877,1.877,0,0,0,1.559,1.091c.156,0,.311,0,.468-.312A1.6,1.6,0,0,0,613.74,901.607Z" transform="translate(-610 -896.464)" fill="#fff"/>
      </g>
    </g>
    <g id="Group_21" data-name="Group 21" transform="translate(613.166 875.721)">
      <g id="Group_20" data-name="Group 20" transform="translate(0 0)">
        <path id="Path_25" data-name="Path 25" d="M624.168,923.69a17.92,17.92,0,0,1-4.364-4.676,1.578,1.578,0,0,0-2.65,1.714,24.331,24.331,0,0,0,5.143,5.455,2.216,2.216,0,0,0,.935.312,1.418,1.418,0,0,0,1.247-.623A1.676,1.676,0,0,0,624.168,923.69Z" transform="translate(-616.891 -918.283)" fill="#fff"/>
      </g>
    </g>
    <g id="Group_23" data-name="Group 23" transform="translate(624.309 883.992)">
      <g id="Group_22" data-name="Group 22" transform="translate(0)">
        <path id="Path_26" data-name="Path 26" d="M656.3,937.476a1.582,1.582,0,0,0-2.026-1.091,19.116,19.116,0,0,1-11.066,0,1.627,1.627,0,1,0-.935,3.117,21.864,21.864,0,0,0,6.39.935,23.734,23.734,0,0,0,6.546-.935A1.528,1.528,0,0,0,656.3,937.476Z" transform="translate(-641.148 -936.288)" fill="#fff"/>
      </g>
    </g>
    <g id="Group_25" data-name="Group 25" transform="translate(627.588 844.328)">
      <g id="Group_24" data-name="Group 24" transform="translate(0 0)">
        <path id="Path_27" data-name="Path 27" d="M672.779,863.679a22.049,22.049,0,0,0-11.689-12,21.829,21.829,0,0,0-11.378-1.559,1.566,1.566,0,0,0,.312,3.117,18.774,18.774,0,0,1,19.794,11.689,18.315,18.315,0,0,1-.156,14.339,18.5,18.5,0,0,1-5.61,7.325,1.524,1.524,0,0,0-.312,2.182,1.417,1.417,0,0,0,1.247.623,1.3,1.3,0,0,0,1.091-.468,21.064,21.064,0,0,0,6.546-8.572A22.055,22.055,0,0,0,672.779,863.679Z" transform="translate(-648.285 -849.946)" fill="#fff"/>
      </g>
    </g>
    <g id="Group_27" data-name="Group 27" transform="translate(626.981 839.553)">
      <g id="Group_26" data-name="Group 26" transform="translate(0 0)">
        <path id="Path_28" data-name="Path 28" d="M655.544,840.137a1.676,1.676,0,0,0-2.182-.312l-5.767,4.364a1.524,1.524,0,0,0-.311,2.182l4.52,5.922a1.417,1.417,0,0,0,1.247.623,1.169,1.169,0,0,0,.779-.156,1.524,1.524,0,0,0,.312-2.182l-3.585-4.676,4.676-3.585A1.524,1.524,0,0,0,655.544,840.137Z" transform="translate(-646.964 -839.553)" fill="#fff"/>
      </g>
    </g>
  </g>
</svg>
