<svg xmlns="http://www.w3.org/2000/svg" width="198.536" height="198.536" viewBox="0 0 198.536 198.536">
  <g id="Group_2057" data-name="Group 2057" transform="translate(-627.023)">
    <circle id="Ellipse_10" data-name="Ellipse 10" cx="99.268" cy="99.268" r="99.268" transform="translate(627.023)" fill="#131313"/>
    <g id="cloud-computing" transform="translate(641.317 19.32)">
      <path id="Path_168" data-name="Path 168" d="M151.272,305.233V279.764a1.589,1.589,0,0,0-1.589-1.589H139.089a1.589,1.589,0,1,0,0,3.178h9v23.88a6.886,6.886,0,1,0,3.178,0Zm-1.589,10.407a3.708,3.708,0,1,1,3.708-3.708A3.712,3.712,0,0,1,149.683,315.64Z" transform="translate(-108.367 -219.236)" fill="#fff"/>
      <path id="Path_169" data-name="Path 169" d="M231.273,305.233V279.764a1.589,1.589,0,0,0-1.589-1.589H219.09a1.589,1.589,0,0,0,0,3.178h9v23.88a6.886,6.886,0,1,0,3.178,0Zm-1.589,10.407a3.708,3.708,0,1,1,3.708-3.708A3.712,3.712,0,0,1,229.684,315.64Z" transform="translate(-171.417 -219.236)" fill="#fff"/>
      <path id="Path_170" data-name="Path 170" d="M321.336,294.452a6.9,6.9,0,0,0-6.7,5.3h-3.365V279.764a1.589,1.589,0,0,0-1.589-1.589H299.089a1.589,1.589,0,1,0,0,3.178h9v19.985a1.589,1.589,0,0,0,1.589,1.589h4.954a6.885,6.885,0,1,0,6.7-8.475Zm0,10.594a3.708,3.708,0,1,1,3.708-3.708A3.712,3.712,0,0,1,321.336,305.046Z" transform="translate(-234.466 -219.236)" fill="#fff"/>
      <path id="Path_171" data-name="Path 171" d="M95.8,34.23A17.249,17.249,0,0,0,87.511,28.6a30.084,30.084,0,0,0-55.7-14.233,13.737,13.737,0,0,0-17.537,10.2,19.086,19.086,0,0,0,4.806,37.556h3.692v18.4H19.412a6.886,6.886,0,1,0,0,3.178h4.954A1.589,1.589,0,0,0,25.955,82.1V60.528a1.589,1.589,0,0,0-1.589-1.589H19.084a15.907,15.907,0,0,1-3.112-31.506,1.589,1.589,0,0,0,1.267-1.352,10.553,10.553,0,0,1,14.645-8.3,1.589,1.589,0,0,0,2.022-.689A26.905,26.905,0,0,1,84.368,29.835,1.589,1.589,0,0,0,85.6,31.369a13.966,13.966,0,0,1-3.161,27.57h-.865a1.589,1.589,0,1,0,0,3.178h.864A17.143,17.143,0,0,0,95.8,34.23ZM12.713,85.81A3.708,3.708,0,1,1,16.42,82.1,3.712,3.712,0,0,1,12.713,85.81Z" fill="#fff"/>
      <path id="Path_172" data-name="Path 172" d="M354.722,110.56h.015a1.589,1.589,0,0,0,1.575-1.6,21.383,21.383,0,0,0-1.469-7.613,1.589,1.589,0,0,0-2.961,1.156,18.212,18.212,0,0,1,1.251,6.486A1.589,1.589,0,0,0,354.722,110.56Z" transform="translate(-277.24 -79.074)" fill="#fff"/>
      <path id="Path_173" data-name="Path 173" d="M279.523,49.907a1.589,1.589,0,1,0,2.45-2.024A21.555,21.555,0,0,0,265.316,40a1.589,1.589,0,1,0,0,3.178,18.388,18.388,0,0,1,14.207,6.728Z" transform="translate(-207.849 -31.525)" fill="#fff"/>
    </g>
    <g id="coffee-cup" transform="translate(723.778 91.729)">
      <g id="Group_78" data-name="Group 78" transform="translate(0 25.818)">
        <g id="Group_77" data-name="Group 77">
          <path id="Path_174" data-name="Path 174" d="M73.921,179.922H61.846v-3.117a1.473,1.473,0,0,0-1.473-1.473H28.567a1.473,1.473,0,0,0,0,2.945H58.9v11.289a28.056,28.056,0,0,1-13.844,24.15H16.79A28.056,28.056,0,0,1,2.945,189.568V178.278h9.866a1.473,1.473,0,0,0,0-2.945H1.473A1.473,1.473,0,0,0,0,176.806v12.762a30.872,30.872,0,0,0,11.613,24.15H1.473A1.473,1.473,0,0,0,0,215.19a9.73,9.73,0,0,0,9.719,9.719H55.662a9.73,9.73,0,0,0,9.719-9.719,1.473,1.473,0,0,0-1.473-1.473H50.234a31.1,31.1,0,0,0,6.818-7.608h4.157a14.2,14.2,0,0,0,14.185-14.185V181.395A1.473,1.473,0,0,0,73.921,179.922Zm-11.647,36.74a6.786,6.786,0,0,1-6.612,5.3H9.719a6.786,6.786,0,0,1-6.612-5.3H62.274Zm-.428-27.095v-.81h4.712v3.166a5.356,5.356,0,0,1-5.35,5.35h-.334A31,31,0,0,0,61.846,189.568Zm10.6,2.356a11.253,11.253,0,0,1-11.24,11.24H58.7a30.744,30.744,0,0,0,1.257-2.945h1.249a8.3,8.3,0,0,0,8.3-8.3v-4.638a1.473,1.473,0,0,0-1.473-1.473H61.846v-2.945h10.6Z" transform="translate(0 -175.333)" fill="#fff"/>
        </g>
      </g>
      <g id="Group_80" data-name="Group 80" transform="translate(27.77 0)">
        <g id="Group_79" data-name="Group 79">
          <path id="Path_175" data-name="Path 175" d="M193.145,8.149l-.766-.962a3.838,3.838,0,0,1,0-4.8A1.473,1.473,0,0,0,190.068.557a6.77,6.77,0,0,0,.007,8.465l.766.962a5.016,5.016,0,0,1,.005,6.272l-.785.989a1.473,1.473,0,1,0,2.307,1.831l.785-.989A7.948,7.948,0,0,0,193.145,8.149Z" transform="translate(-188.585 0)" fill="#fff"/>
        </g>
      </g>
      <g id="Group_82" data-name="Group 82" transform="translate(35.932 3.311)">
        <g id="Group_81" data-name="Group 81">
          <path id="Path_176" data-name="Path 176" d="M248.574,30.633l-.766-.962a3.838,3.838,0,0,1,0-4.8,1.473,1.473,0,0,0-2.307-1.831,6.771,6.771,0,0,0,.007,8.465l.766.962a5.017,5.017,0,0,1,.005,6.272l-.785.989A1.472,1.472,0,1,0,247.8,41.56l.785-.989A7.948,7.948,0,0,0,248.574,30.633Z" transform="translate(-244.014 -22.484)" fill="#fff"/>
        </g>
      </g>
      <g id="Group_84" data-name="Group 84" transform="translate(19.608 3.311)">
        <g id="Group_83" data-name="Group 83">
          <path id="Path_177" data-name="Path 177" d="M137.716,30.634l-.766-.962a3.839,3.839,0,0,1,0-4.8,1.473,1.473,0,1,0-2.307-1.831,6.771,6.771,0,0,0,.007,8.465l.766.962a5.017,5.017,0,0,1,.005,6.272l-.785.989a1.473,1.473,0,1,0,2.307,1.831l.785-.989A7.949,7.949,0,0,0,137.716,30.634Z" transform="translate(-133.156 -22.485)" fill="#fff"/>
        </g>
      </g>
      <g id="Group_86" data-name="Group 86" transform="translate(19.616 25.818)">
        <g id="Group_85" data-name="Group 85">
          <path id="Path_178" data-name="Path 178" d="M135.724,175.761a1.474,1.474,0,1,0,.431,1.041A1.484,1.484,0,0,0,135.724,175.761Z" transform="translate(-133.21 -175.33)" fill="#fff"/>
        </g>
      </g>
      <g id="Group_88" data-name="Group 88" transform="translate(45.324 38.58)">
        <g id="Group_87" data-name="Group 87">
          <path id="Path_179" data-name="Path 179" d="M315.777,262a1.473,1.473,0,0,0-1.473,1.473,21.1,21.1,0,0,1-6.083,14.738,1.473,1.473,0,1,0,2.092,2.073,24.064,24.064,0,0,0,6.936-16.811A1.473,1.473,0,0,0,315.777,262Z" transform="translate(-307.795 -262)" fill="#fff"/>
        </g>
      </g>
      <g id="Group_90" data-name="Group 90" transform="translate(40.487 58.038)">
        <g id="Group_89" data-name="Group 89">
          <path id="Path_180" data-name="Path 180" d="M277.734,394.885a1.473,1.473,0,0,0-2.006-.559l-.034.019a1.473,1.473,0,1,0,1.447,2.565l.034-.019A1.473,1.473,0,0,0,277.734,394.885Z" transform="translate(-274.945 -394.136)" fill="#fff"/>
        </g>
      </g>
    </g>
  </g>
</svg>
