<svg xmlns="http://www.w3.org/2000/svg" width="57.15" height="68.857" viewBox="0 0 57.15 68.857">
  <g id="Group_2056" data-name="Group 2056" transform="translate(-72.575 -35)">
    <path id="Path_36" data-name="Path 36" d="M79.741,103.857h24.926a7.174,7.174,0,0,0,7.166-7.166V88.279h1.715a.935.935,0,0,0,.931-.845l.312-3.23a15.069,15.069,0,0,0,3.843-1.617l2.48,2.054a.935.935,0,0,0,1.257-.059l3.705-3.705a.935.935,0,0,0,.059-1.257l-2.058-2.485A15.374,15.374,0,0,0,125.7,73.3l3.184-.311a.935.935,0,0,0,.844-.93V66.8a.935.935,0,0,0-.845-.93l-3.23-.312a15.073,15.073,0,0,0-1.617-3.843l2.053-2.48a.935.935,0,0,0-.055-1.253l-3.658-3.705a.935.935,0,0,0-1.262-.063l-2.485,2.058a15.377,15.377,0,0,0-3.837-1.621l-.312-3.23a.935.935,0,0,0-.93-.845h-1.715V42.166A7.174,7.174,0,0,0,104.667,35H79.741a7.174,7.174,0,0,0-7.166,7.166V96.691a7.174,7.174,0,0,0,7.166,7.166ZM112.993,55.5a.935.935,0,0,0,.733.824,13.532,13.532,0,0,1,4.474,1.889.935.935,0,0,0,1.1-.066l2.342-1.94,2.462,2.494-1.946,2.351a.935.935,0,0,0-.058,1.114,13.117,13.117,0,0,1,1.881,4.463.935.935,0,0,0,.824.732l3.048.294v3.556l-3,.294a.935.935,0,0,0-.823.732,13.527,13.527,0,0,1-1.888,4.474.935.935,0,0,0,.066,1.1l1.943,2.346-2.5,2.5L119.3,80.715a.935.935,0,0,0-1.115-.058,13.123,13.123,0,0,1-4.463,1.881.935.935,0,0,0-.732.824l-.294,3.047h-3.555l-.294-3.047a.935.935,0,0,0-.732-.824,13.532,13.532,0,0,1-4.474-1.889.935.935,0,0,0-1.1.066l-2.346,1.943-2.5-2.5,1.943-2.346a.935.935,0,0,0,.058-1.114,13.118,13.118,0,0,1-1.881-4.463.935.935,0,0,0-.824-.732l-3.047-.294V67.651l3.047-.294a.935.935,0,0,0,.824-.732A13.53,13.53,0,0,1,99.7,62.15a.935.935,0,0,0-.065-1.1L97.693,58.7l2.5-2.5,2.346,1.943a.935.935,0,0,0,1.115.058,13.12,13.12,0,0,1,4.463-1.881.935.935,0,0,0,.732-.824l.294-3.047H112.7ZM79.741,36.869h24.926a5.3,5.3,0,0,1,5.3,5.3v2.181h-2.181a.935.935,0,1,0,0,1.869h2.181v4.362H108.3a.935.935,0,0,0-.93.845l-.312,3.23a15.07,15.07,0,0,0-3.843,1.617l-2.48-2.054a.935.935,0,0,0-1.257.059l-3.705,3.705a.935.935,0,0,0-.059,1.257l2.058,2.485a15.385,15.385,0,0,0-1.621,3.837l-3.23.312a.935.935,0,0,0-.845.93v5.253a.935.935,0,0,0,.845.931l3.23.312a15.079,15.079,0,0,0,1.617,3.843L95.71,79.62a.935.935,0,0,0,.059,1.257l3.705,3.705a.935.935,0,0,0,1.257.059l2.485-2.058a15.374,15.374,0,0,0,3.838,1.621l.312,3.23a.935.935,0,0,0,.93.845h1.668v2.493H74.444V46.217H99.837a.935.935,0,0,0,0-1.869H74.444V42.166a5.3,5.3,0,0,1,5.3-5.3Zm-5.3,55.771h35.519v4.05a5.3,5.3,0,0,1-5.3,5.3H79.741a5.3,5.3,0,0,1-5.3-5.3Z" fill="#fff"/>
    <path id="Path_37" data-name="Path 37" d="M262.2,96.869h1.732a.935.935,0,1,0,0-1.869H262.2a.935.935,0,0,0,0,1.869Z" transform="translate(-159.299 -50.653)" fill="#fff"/>
    <path id="Path_38" data-name="Path 38" d="M180.846,420.543a3.271,3.271,0,1,0-3.271-3.271A3.271,3.271,0,0,0,180.846,420.543Zm0-4.674a1.4,1.4,0,1,1-1.4,1.4A1.4,1.4,0,0,1,180.846,415.869Z" transform="translate(-88.643 -319.957)" fill="#fff"/>
    <path id="Path_39" data-name="Path 39" d="M247.08,195.515a11.161,11.161,0,1,0,11.161-11.161A11.161,11.161,0,0,0,247.08,195.515Zm11.161-9.292a9.292,9.292,0,1,1-9.292,9.292A9.292,9.292,0,0,1,258.241,186.223Z" transform="translate(-147.32 -126.087)" fill="#fff"/>
    <path id="Path_40" data-name="Path 40" d="M288.68,239.847a.935.935,0,0,0,1.306,0l5.45-5.321a.935.935,0,1,0-1.306-1.338l-4.8,4.683-2.372-2.316a.935.935,0,1,0-1.306,1.338Z" transform="translate(-179.647 -167.089)" fill="#fff"/>
    <path id="Path_41" data-name="Path 41" d="M166.936,237h-1.291a.935.935,0,1,0,0,1.869h1.291a.935.935,0,0,0,0-1.869Z" transform="translate(-77.782 -170.531)" fill="#fff"/>
    <path id="Path_42" data-name="Path 42" d="M102.935,238.869h5.636a.935.935,0,0,0,0-1.869h-5.636a.935.935,0,0,0,0,1.869Z" transform="translate(-24.841 -170.531)" fill="#fff"/>
    <path id="Path_43" data-name="Path 43" d="M141.61,287h-5.965a.935.935,0,1,0,0,1.869h5.965a.935.935,0,1,0,0-1.869Z" transform="translate(-52.455 -212.742)" fill="#fff"/>
    <path id="Path_44" data-name="Path 44" d="M102.935,288.869h.962a.935.935,0,0,0,0-1.869h-.962a.935.935,0,0,0,0,1.869Z" transform="translate(-24.841 -212.742)" fill="#fff"/>
    <path id="Path_45" data-name="Path 45" d="M175,337.935a.935.935,0,0,0,.935.935H180.3a.935.935,0,1,0,0-1.869h-4.362A.935.935,0,0,0,175,337.935Z" transform="translate(-86.469 -254.953)" fill="#fff"/>
    <path id="Path_46" data-name="Path 46" d="M110.128,337h-7.194a.935.935,0,1,0,0,1.869h7.194a.935.935,0,1,0,0-1.869Z" transform="translate(-24.841 -254.953)" fill="#fff"/>
    <path id="Path_47" data-name="Path 47" d="M145.935,184.869h5.92a.935.935,0,1,0,0-1.869h-5.92a.935.935,0,1,0,0,1.869Z" transform="translate(-61.142 -124.944)" fill="#fff"/>
    <path id="Path_48" data-name="Path 48" d="M102.935,184.869h2.52a.935.935,0,1,0,0-1.869h-2.52a.935.935,0,0,0,0,1.869Z" transform="translate(-24.841 -124.944)" fill="#fff"/>
  </g>
</svg>
