<svg xmlns="http://www.w3.org/2000/svg" width="94.146" height="94.148" viewBox="0 0 94.146 94.148">
  <g id="idea_2_" data-name="idea (2)" transform="translate(0.002 0.003)">
    <g id="_010---Idea" data-name="010---Idea" transform="translate(-0.002 -0.003)">
      <path id="Shape" d="M3.311,59.67a11.2,11.2,0,0,0,1.63.941c.678.347,1.814.927,1.894,1.334a2.725,2.725,0,0,1-.185,1.589c-.234.5-.479.934-.69,1.305-.574,1.015-1.536,2.716-.086,3.9.339.314.924.767,1.458,1.177a3.952,3.952,0,0,0-.51,2.264,2.259,2.259,0,0,0,.93,1.542c.348.246.72.46,1.087.668.927.529,1.29.775,1.412,1.266a4.323,4.323,0,0,1-.157,1.883c-.093.419-.182.839-.235,1.255a9.337,9.337,0,0,0,.516,4.227,5.878,5.878,0,0,0,5.55,4.276,6.309,6.309,0,0,0,1.287-.137A119.062,119.062,0,0,0,30.439,83.2c3.535,2.074,5.768,8.382,6.35,10.75a1.569,1.569,0,0,0,1.524,1.191l39.383-.11a1.569,1.569,0,0,0,1.494-2.04A12.107,12.107,0,0,0,77.6,90.014a14.647,14.647,0,0,1-1.015-1.7,29.639,29.639,0,0,1-1.771-4.462,52.943,52.943,0,0,1-1.842-9.179,1.569,1.569,0,1,0-3.113.383,55.974,55.974,0,0,0,1.957,9.728A32.886,32.886,0,0,0,73.762,89.7a17.4,17.4,0,0,0,1.216,2.051l.105.157-35.584.1a25,25,0,0,0-5.523-10.02l1.412-.494c1.051-.367,1.844-.643,2.25-.774,6.722-2.126,10.083-5.187,9.992-9.1a1.528,1.528,0,0,0-1.6-1.531A1.569,1.569,0,0,0,44.5,71.692c.038,1.615-1.285,3.97-7.808,6.033-.425.137-1.244.422-2.332.8-1.166.408-2.649.926-4.283,1.481h-.011a122.085,122.085,0,0,1-13.494,4.08A2.777,2.777,0,0,1,13.345,82a6.238,6.238,0,0,1-.369-2.8c.041-.329.116-.656.188-.984a6.874,6.874,0,0,0,.137-3.34,5.214,5.214,0,0,0-2.9-3.207l-.326-.187a5.882,5.882,0,0,1,.6-.97,1.569,1.569,0,0,0-.3-2.234C10,68,9.11,67.333,8.46,66.809c.075-.137.157-.287.235-.424.246-.431.527-.934.8-1.514a5.882,5.882,0,0,0,.419-3.512c-.377-1.914-2.209-2.853-3.548-3.537a8.916,8.916,0,0,1-1.29-.748,6.663,6.663,0,0,1-.941-.766c0-.237.254-.811,1.45-2.269a63.115,63.115,0,0,0,7.182-11.664,4.635,4.635,0,0,0,.607-2.123,5.492,5.492,0,0,0-2.292-3.923c-.635-.582-1.233-1.131-1.3-1.638a2.851,2.851,0,0,1,.245-1.078c.256-.673.551-1.332.847-1.993a22.922,22.922,0,0,0,1.535-4.138l.157-.668a39.231,39.231,0,0,1,1.283-4.632,26.909,26.909,0,0,1,5.63-9.2c3-3.176,7.726-5.423,14.065-6.683A101.987,101.987,0,0,1,48.264,4.184a33.465,33.465,0,0,1,7.385.419,1.569,1.569,0,0,0,.537-3.091A36.441,36.441,0,0,0,48.1,1.051,104.726,104.726,0,0,0,32.923,3.228C25.848,4.64,20.707,7.121,17.2,10.83A30.063,30.063,0,0,0,10.9,21.1a42.559,42.559,0,0,0-1.39,5.01l-.157.662a20.472,20.472,0,0,1-1.342,3.574c-.314.715-.64,1.431-.921,2.172a5.255,5.255,0,0,0-.416,2.625,5.991,5.991,0,0,0,2.288,3.5c.767.7,1.271,1.2,1.277,1.632a2.605,2.605,0,0,1-.268.683A60.533,60.533,0,0,1,3.1,52.124C1.968,53.507.78,55.118,1.032,56.73A4.79,4.79,0,0,0,3.311,59.67Z" transform="translate(-0.998 -0.997)" fill="#3cb2aa"/>
      <path id="Shape-2" data-name="Shape" d="M13.29,25.563l.157-.7a34.965,34.965,0,0,1,1.047-3.857A20.675,20.675,0,0,1,18.8,13.947,16.428,16.428,0,0,1,26.03,9.976a1.569,1.569,0,1,0-.913-3,19.431,19.431,0,0,0-8.6,4.819,23.819,23.819,0,0,0-4.963,8.132,37.4,37.4,0,0,0-1.163,4.251l-.157.679a1.569,1.569,0,0,0,1.172,1.883,1.538,1.538,0,0,0,.356.041A1.569,1.569,0,0,0,13.29,25.563Z" transform="translate(4.235 2.361)" fill="#3cb2aa"/>
      <circle id="Oval" cx="1.569" cy="1.569" r="1.569" transform="translate(12.555 31.386)" fill="#3cb2aa"/>
      <path id="Shape-3" data-name="Shape" d="M28,28.727A21.505,21.505,0,0,0,33.3,43.3a26.956,26.956,0,0,0,3.609,3.138c2.3,1.775,4.47,3.471,5.048,5.831a4.707,4.707,0,0,0-2.975,4.368v3.138A4.707,4.707,0,0,0,42.123,64.2v.289a6.276,6.276,0,1,0,12.552,0V64.2a4.707,4.707,0,0,0,3.138-4.418V56.64a4.707,4.707,0,0,0-2.981-4.368c.576-2.354,2.752-4.056,5.048-5.831A27.072,27.072,0,0,0,63.489,43.3,21.516,21.516,0,0,0,68.8,28.727,20.812,20.812,0,0,0,48.4,8,20.812,20.812,0,0,0,28,28.727Zm15.69,2.809H42.123a1.569,1.569,0,1,1,1.569-1.569Zm6.276,20.4H46.83V34.674h3.138ZM48.4,67.624a3.138,3.138,0,0,1-3.138-3.138h6.276A3.138,3.138,0,0,1,48.4,67.624Zm6.276-7.845a1.569,1.569,0,0,1-1.569,1.569H43.692a1.569,1.569,0,0,1-1.569-1.569V56.64a1.569,1.569,0,0,1,1.569-1.569h9.414a1.569,1.569,0,0,1,1.569,1.569Zm10.983-31A18.347,18.347,0,0,1,61.166,41.2a24.52,24.52,0,0,1-3.2,2.757A21.967,21.967,0,0,0,53.106,48.6V34.674h1.569a4.707,4.707,0,1,0-4.707-4.707v1.569H46.83V29.967a4.707,4.707,0,1,0-4.707,4.707h1.569V48.6a21.94,21.94,0,0,0-4.856-4.641,24.568,24.568,0,0,1-3.2-2.758,18.338,18.338,0,0,1-4.5-12.425C31.3,19.214,39.192,11.138,48.4,11.138S65.51,19.214,65.659,28.776Zm-12.552,2.76V29.967a1.569,1.569,0,1,1,1.569,1.569Z" transform="translate(14.366 2.988)" fill="#3cb2aa"/>
      <path id="Shape-4" data-name="Shape" d="M57.569,23.138h4.707a1.569,1.569,0,1,0,0-3.138H57.569a1.569,1.569,0,1,0,0,3.138Z" transform="translate(30.3 9.817)" fill="#3cb2aa"/>
      <path id="Shape-5" data-name="Shape" d="M52.883,13.04a1.569,1.569,0,0,0,1.111-.46l3.328-3.33A1.569,1.569,0,1,0,55.1,7.032l-3.33,3.328a1.569,1.569,0,0,0,1.109,2.68Z" transform="translate(27.633 2.165)" fill="#3cb2aa"/>
      <path id="Shape-6" data-name="Shape" d="M41.569,8.845a1.569,1.569,0,0,0,1.569-1.569V2.569a1.569,1.569,0,1,0-3.138,0V7.276A1.569,1.569,0,0,0,41.569,8.845Z" transform="translate(21.196 -0.995)" fill="#3cb2aa"/>
      <path id="Shape-7" data-name="Shape" d="M32.58,12.58a1.569,1.569,0,0,0,0-2.22L29.25,7.032A1.569,1.569,0,1,0,27.032,9.25l3.328,3.33a1.569,1.569,0,0,0,2.22,0Z" transform="translate(13.544 2.165)" fill="#3cb2aa"/>
      <path id="Shape-8" data-name="Shape" d="M22.569,20a1.569,1.569,0,1,0,0,3.138h4.707a1.569,1.569,0,1,0,0-3.138Z" transform="translate(10.384 9.817)" fill="#3cb2aa"/>
    </g>
  </g>
</svg>
