<svg xmlns="http://www.w3.org/2000/svg" width="42.488" height="56.402" viewBox="0 0 42.488 56.402">
  <g id="light-bulb" transform="translate(-133.691 1)">
    <g id="Group_54" data-name="Group 54" transform="translate(133.691 -1)">
      <g id="Group_53" data-name="Group 53" transform="translate(0)">
        <path id="Path_65" data-name="Path 65" d="M312.564,670.812a.881.881,0,1,1,0-1.763h10.245a.881.881,0,0,1,0,1.763Z" transform="translate(-296.442 -621.403)" fill="#484848"/>
        <path id="Path_66" data-name="Path 66" d="M328.572,719.925a.881.881,0,0,1,0-1.763h7.968a.881.881,0,0,1,0,1.763Z" transform="translate(-311.312 -667.018)" fill="#484848"/>
        <path id="Path_67" data-name="Path 67" d="M312.472,335.2a.878.878,0,0,1-1.755,0,46.539,46.539,0,0,0-.622-9.05,26,26,0,0,0-3.024-7.79.878.878,0,0,1,1.535-.854,27.662,27.662,0,0,1,3.217,8.3A48.2,48.2,0,0,1,312.472,335.2Z" transform="translate(-292.057 -294.474)" fill="#484848"/>
        <path id="Path_68" data-name="Path 68" d="M409.421,335.182a.878.878,0,1,1-1.755,0,48.216,48.216,0,0,1,.65-9.393,27.667,27.667,0,0,1,3.217-8.3.877.877,0,0,1,1.533.854,26.023,26.023,0,0,0-3.024,7.79A46.55,46.55,0,0,0,409.421,335.182Z" transform="translate(-385.591 -294.459)" fill="#484848"/>
        <path id="Path_69" data-name="Path 69" d="M307.556,318.73a.879.879,0,0,1,.536-1.674,11.4,11.4,0,0,1,1.634.711l.048.026c.766.386,1.4.687,1.876.3l1.083-.883a.878.878,0,1,1,1.107,1.364l-1.083.883c-1.349,1.1-2.453.564-3.782-.1l-.04-.018A9.84,9.84,0,0,0,307.556,318.73Z" transform="translate(-292.043 -294.437)" fill="#484848"/>
        <path id="Path_70" data-name="Path 70" d="M385.4,4.3a.881.881,0,0,1-1.763,0V.881a.881.881,0,0,1,1.763,0Z" transform="translate(-363.273)" fill="#484848"/>
        <path id="Path_71" data-name="Path 71" d="M389.748,317.046a.879.879,0,0,1,.536,1.674,9.975,9.975,0,0,0-1.381.608l-.04.018c-1.328.666-2.433,1.2-3.782.1L384,318.567a.878.878,0,1,1,1.107-1.364l1.083.883c.474.386,1.109.083,1.876-.3l.048-.026A11.285,11.285,0,0,1,389.748,317.046Z" transform="translate(-363.307 -294.429)" fill="#484848"/>
        <path id="Path_72" data-name="Path 72" d="M202.608,132.444a15.662,15.662,0,0,1,1.577,20.33,55.494,55.494,0,0,1-3.949,4.794c-1.834,2.029-2.638,2.918-2.638,5.884a.882.882,0,0,1-.881.881H186.4a.883.883,0,0,1-.883-.881c0-2.938-.821-3.835-2.642-5.831l0,0,0,0a53,53,0,0,1-4.014-4.847,15.674,15.674,0,0,1-1.825-15.239l.017-.035a15.684,15.684,0,0,1,8.479-8.457v0a15.673,15.673,0,0,1,17.08,3.4Zm2.829,11.088A13.928,13.928,0,0,0,186.2,130.666v0l0,0a14.012,14.012,0,0,0-7.522,7.5l-.018.048a13.908,13.908,0,0,0,1.619,13.524,51.889,51.889,0,0,0,3.9,4.7l0,0c1.961,2.143,2.936,3.215,3.088,6.134h8.6c.151-2.939,1.107-4,3.077-6.178a53.527,53.527,0,0,0,3.834-4.656,13.891,13.891,0,0,0,2.673-8.207Z" transform="translate(-170.275 -118.745)" fill="#484848"/>
        <path id="Path_73" data-name="Path 73" d="M344.557,769.013a.881.881,0,0,1,0-1.763h5.692a.881.881,0,0,1,0,1.763Z" transform="translate(-326.158 -712.611)" fill="#484848"/>
        <path id="Path_74" data-name="Path 74" d="M526.473,48.559a.878.878,0,1,1-1.522-.876l1.708-2.958a.878.878,0,0,1,1.522.876Z" transform="translate(-494.416 -41.132)" fill="#484848"/>
        <path id="Path_75" data-name="Path 75" d="M221.922,47.708a.877.877,0,1,1-1.52.874l-1.708-2.958a.878.878,0,0,1,1.522-.874Z" transform="translate(-209.969 -41.155)" fill="#484848"/>
        <path id="Path_76" data-name="Path 76" d="M101.963,167.015a.878.878,0,0,1-.874,1.522l-2.958-1.708a.877.877,0,1,1,.874-1.52Z" transform="translate(-97.691 -153.429)" fill="#484848"/>
        <path id="Path_77" data-name="Path 77" d="M629.454,168.518a.878.878,0,0,1-.876-1.522l2.958-1.708a.878.878,0,1,1,.876,1.522Z" transform="translate(-590.364 -153.41)" fill="#484848"/>
        <path id="Path_78" data-name="Path 78" d="M234.324,193.97a.878.878,0,1,1-1.617.681,11.556,11.556,0,0,1-.687-2.227,11.85,11.85,0,0,1-.235-2.323.881.881,0,1,1,1.763,0,10.008,10.008,0,0,0,.195,1.979,9.807,9.807,0,0,0,.582,1.889Zm0-7.739a.878.878,0,1,1-1.617-.681,11.761,11.761,0,0,1,1.07-1.977l0,0,0,0a11.632,11.632,0,0,1,3.173-3.169v0a11.638,11.638,0,0,1,1.981-1.07,11.463,11.463,0,0,1,2.225-.687,11.743,11.743,0,0,1,2.324-.235.881.881,0,1,1,0,1.763,10.142,10.142,0,0,0-1.981.193,9.716,9.716,0,0,0-1.887.584,9.93,9.93,0,0,0-1.678.912h0a10.084,10.084,0,0,0-2.693,2.7l0,0A9.912,9.912,0,0,0,234.324,186.231Z" transform="translate(-222.236 -165.701)" fill="#484848"/>
      </g>
    </g>
  </g>
</svg>
