<svg xmlns="http://www.w3.org/2000/svg" width="615.573" height="114.455" viewBox="0 0 615.573 114.455">
  <g id="Group_2056" data-name="Group 2056" transform="translate(-902.427 -316.295)">
    <text id="mango" transform="translate(1028.158 406.491)" fill="#a21821" font-size="93" font-family="Helvetica-Bold, Helvetica" font-weight="700"><tspan x="0" y="0">mango</tspan></text>
    <text id="bits" transform="translate(1352 406.491)" fill="#f3f3f1" font-size="93" font-family="Helvetica-Bold, Helvetica" font-weight="700"><tspan x="0" y="0">bits</tspan></text>
    <path id="Path_1" data-name="Path 1" d="M437.576,474.035V491.16h8.57V500.1l45.249.559V481H474.447V460.857l-28.3,4.226Z" transform="translate(473.789 -78.286)" fill="#d5800b"/>
    <path id="Path_2" data-name="Path 2" d="M468.087,448.069l16.919.073v19.01h18.848v16.654h8.54l-.206-9.07h9.777l1.252-26.593-27.771-26.828-9.468.81V430.5l-8.953.28v8.555l-8.938-.206Z" transform="translate(460.786 -61.434)" fill="#d37930"/>
    <path id="Path_3" data-name="Path 3" d="M515.764,421.314v19.5h8.952v8.467h17.331l.073,25.106h7.79l.545-8.894h8.938v-10.94l-35.457-32.925Z" transform="translate(440.467 -61.434)" fill="#cf552f"/>
    <path id="Path_4" data-name="Path 4" d="M565.094,451.091l-8.393-.1v-7.8h-7.863v-9.233H539.9v-8.275h-9.483v-18.45l17.876-.206,10.337,8.2,6.464,17.979Z" transform="translate(434.222 -55.343)" fill="#c34221"/>
    <path id="Path_5" data-name="Path 5" d="M561.569,407.5v9.026l8.953-.133-.545,16.86,8.393.088v18.1l9.012-.1.471-35.973H571.905l-1.384-7.907Z" transform="translate(420.946 -55.528)" fill="#ad201f"/>
    <rect id="Rectangle_2" data-name="Rectangle 2" width="8.938" height="8.938" transform="translate(955.701 351.987)" fill="#ab1f21"/>
    <rect id="Rectangle_3" data-name="Rectangle 3" width="8.938" height="8.938" transform="translate(946.748 351.987)" fill="#ab1f21"/>
    <rect id="Rectangle_4" data-name="Rectangle 4" width="8.938" height="8.938" transform="translate(973.577 343.035)" fill="#ab1f21"/>
    <rect id="Rectangle_5" data-name="Rectangle 5" width="8.938" height="8.938" transform="translate(982.515 343.035)" fill="#ab1f21"/>
    <rect id="Rectangle_6" data-name="Rectangle 6" width="8.938" height="8.938" transform="translate(991.453 351.987)" fill="#931b19"/>
    <rect id="Rectangle_7" data-name="Rectangle 7" width="8.938" height="8.938" transform="translate(1000.405 351.987)" fill="#931b19"/>
    <rect id="Rectangle_8" data-name="Rectangle 8" width="8.938" height="8.938" transform="translate(964.639 343.035)" fill="#ab1f21"/>
    <rect id="Rectangle_9" data-name="Rectangle 9" width="8.938" height="8.938" transform="translate(928.872 421.812)" fill="#ba3516"/>
    <rect id="Rectangle_10" data-name="Rectangle 10" width="8.938" height="8.938" transform="translate(919.934 421.812)" fill="#ba3516"/>
    <rect id="Rectangle_11" data-name="Rectangle 11" width="8.938" height="8.938" transform="translate(946.748 421.812)" fill="#ba3516"/>
    <rect id="Rectangle_12" data-name="Rectangle 12" width="8.938" height="8.938" transform="translate(937.81 421.812)" fill="#ba3516"/>
    <rect id="Rectangle_13" data-name="Rectangle 13" width="8.938" height="8.938" transform="translate(964.639 421.812)" fill="#ab1f21"/>
    <rect id="Rectangle_14" data-name="Rectangle 14" width="8.938" height="8.938" transform="translate(955.701 421.812)" fill="#ba3516"/>
    <rect id="Rectangle_15" data-name="Rectangle 15" width="8.938" height="8.938" transform="translate(981.44 412.874)" fill="#ab1f21"/>
    <rect id="Rectangle_16" data-name="Rectangle 16" width="8.938" height="8.938" transform="translate(972.502 412.874)" fill="#ab1f21"/>
    <rect id="Rectangle_17" data-name="Rectangle 17" width="8.938" height="8.938" transform="translate(937.81 360.351)" fill="#ab1f21"/>
    <rect id="Rectangle_18" data-name="Rectangle 18" width="8.938" height="8.938" transform="translate(928.872 368.921)" fill="#ab1f21"/>
    <rect id="Rectangle_19" data-name="Rectangle 19" width="8.938" height="8.938" transform="translate(919.934 377.859)" fill="#ab1f21"/>
    <rect id="Rectangle_20" data-name="Rectangle 20" width="8.938" height="8.938" transform="translate(910.997 386.796)" fill="#ba3516"/>
    <rect id="Rectangle_21" data-name="Rectangle 21" width="8.938" height="8.938" transform="translate(902.427 395.749)" fill="#ba3516"/>
    <rect id="Rectangle_22" data-name="Rectangle 22" width="8.938" height="8.938" transform="translate(902.427 404.687)" fill="#ba3516"/>
    <rect id="Rectangle_23" data-name="Rectangle 23" width="8.938" height="8.938" transform="translate(1008.253 377.859)" fill="#931b19"/>
    <rect id="Rectangle_24" data-name="Rectangle 24" width="8.938" height="8.938" transform="translate(1008.253 386.796)" fill="#931b19"/>
    <rect id="Rectangle_25" data-name="Rectangle 25" width="8.938" height="8.938" transform="translate(999.316 395.749)" fill="#ab1f21"/>
    <rect id="Rectangle_26" data-name="Rectangle 26" width="8.938" height="8.938" transform="translate(990.378 403.936)" fill="#ab1f21"/>
    <rect id="Rectangle_27" data-name="Rectangle 27" width="8.938" height="8.938" transform="translate(1008.253 359.983)" fill="#931b19"/>
    <rect id="Rectangle_28" data-name="Rectangle 28" width="8.938" height="8.938" transform="translate(1008.253 368.921)" fill="#931b19"/>
    <rect id="Rectangle_29" data-name="Rectangle 29" width="8.938" height="8.938" transform="translate(910.997 412.874)" fill="#ba3516"/>
    <path id="Path_6" data-name="Path 6" d="M513.2,345.484l54.585,35.575S559.493,345.1,513.2,345.484Z" transform="translate(441.56 -29.116)" fill="#128038"/>
    <path id="Path_7" data-name="Path 7" d="M512.942,345.358l54.732,35.648S531.642,387.721,512.942,345.358Z" transform="translate(441.669 -29.063)" fill="#3f9136"/>
  </g>
</svg>
