<svg class="subtitle" xmlns="http://www.w3.org/2000/svg" width="199.6" height="35.086" viewBox="0 0 199.6 35.086">
  <g id="Group_141" data-name="Group 141" transform="translate(0 -3.878)">
    <g id="Group_1" data-name="Group 1" transform="translate(41.19 0)">
      <text id="mango" transform="translate(0 30)" fill="#a21821" font-size="30" font-family="Helvetica-Bold, Helvetica" font-weight="700"><tspan x="0" y="0">mango</tspan></text>
      <text id="bits" transform="translate(104.41 30)" fill="#8fb139" font-size="30" font-family="Helvetica-Bold, Helvetica" font-weight="700"><tspan x="0" y="0">bits</tspan></text>
    </g>
    <g id="Group_2" data-name="Group 2" transform="translate(0 3.878)">
      <path class="path" id="Path_1" data-name="Path 1" d="M437.576,464.9v5.25H440.2v2.74l13.871.171v-6.026h-5.2v-6.175l-8.676,1.3Z" transform="translate(-434.836 -440.539)" fill="#d5800b"/>
      <path class="path" id="Path_2" data-name="Path 2" d="M468.087,429.515l5.186.023v5.827h5.778v5.105h2.618l-.063-2.781h3l.384-8.152-8.513-8.224-2.9.248v2.568l-2.744.086v2.623l-2.74-.063Z" transform="translate(-459.98 -407.952)" fill="#d37930"/>
      <path class="path" id="Path_3" data-name="Path 3" d="M515.764,421.314v5.976h2.745v2.6h5.313l.022,7.7h2.388l.167-2.726h2.74V431.5L518.27,421.408Z" transform="translate(-499.27 -407.952)" fill="#cf552f"/>
      <path class="path" id="Path_4" data-name="Path 4" d="M541.047,420.531l-2.573-.032v-2.392h-2.41v-2.83h-2.74V412.74h-2.907v-5.656l5.48-.063,3.169,2.514,1.982,5.512Z" transform="translate(-511.345 -396.174)" fill="#c34221"/>
      <path class="path" id="Path_5" data-name="Path 5" d="M561.569,407.47v2.767l2.745-.041-.167,5.169,2.573.027v5.548l2.762-.032.144-11.028h-4.888l-.424-2.424Z" transform="translate(-537.017 -396.533)" fill="#ad201f"/>
      <rect id="Rectangle_2" data-name="Rectangle 2" width="2.74" height="2.74" transform="translate(16.332 10.942)" fill="#ab1f21"/>
      <rect id="Rectangle_3" data-name="Rectangle 3" width="2.74" height="2.74" transform="translate(13.587 10.942)" fill="#ab1f21"/>
      <rect id="Rectangle_4" data-name="Rectangle 4" width="2.74" height="2.74" transform="translate(21.811 8.197)" fill="#ab1f21"/>
      <rect id="Rectangle_5" data-name="Rectangle 5" width="2.74" height="2.74" transform="translate(24.551 8.197)" fill="#ab1f21"/>
      <rect id="Rectangle_6" data-name="Rectangle 6" width="2.74" height="2.74" transform="translate(27.291 10.942)" fill="#931b19"/>
      <rect id="Rectangle_7" data-name="Rectangle 7" width="2.74" height="2.74" transform="translate(30.036 10.942)" fill="#931b19"/>
      <rect id="Rectangle_8" data-name="Rectangle 8" width="2.74" height="2.74" transform="translate(19.072 8.197)" fill="#ab1f21"/>
      <rect id="Rectangle_9" data-name="Rectangle 9" width="2.74" height="2.74" transform="translate(8.107 32.347)" fill="#ba3516"/>
      <rect id="Rectangle_10" data-name="Rectangle 10" width="2.74" height="2.74" transform="translate(5.367 32.347)" fill="#ba3516"/>
      <rect id="Rectangle_11" data-name="Rectangle 11" width="2.74" height="2.74" transform="translate(13.587 32.347)" fill="#ba3516"/>
      <rect id="Rectangle_12" data-name="Rectangle 12" width="2.74" height="2.74" transform="translate(10.847 32.347)" fill="#ba3516"/>
      <rect id="Rectangle_13" data-name="Rectangle 13" width="2.74" height="2.74" transform="translate(19.072 32.347)" fill="#ab1f21"/>
      <rect id="Rectangle_14" data-name="Rectangle 14" width="2.74" height="2.74" transform="translate(16.332 32.347)" fill="#ba3516"/>
      <rect id="Rectangle_15" data-name="Rectangle 15" width="2.74" height="2.74" transform="translate(24.222 29.607)" fill="#ab1f21"/>
      <rect id="Rectangle_16" data-name="Rectangle 16" width="2.74" height="2.74" transform="translate(21.482 29.607)" fill="#ab1f21"/>
      <rect id="Rectangle_17" data-name="Rectangle 17" width="2.74" height="2.74" transform="translate(10.847 13.506)" fill="#ab1f21"/>
      <rect id="Rectangle_18" data-name="Rectangle 18" width="2.74" height="2.74" transform="translate(8.107 16.133)" fill="#ab1f21"/>
      <rect id="Rectangle_19" data-name="Rectangle 19" width="2.74" height="2.74" transform="translate(5.367 18.873)" fill="#ab1f21"/>
      <rect id="Rectangle_20" data-name="Rectangle 20" width="2.74" height="2.74" transform="translate(2.627 21.613)" fill="#ba3516"/>
      <rect id="Rectangle_21" data-name="Rectangle 21" width="2.74" height="2.74" transform="translate(0 24.357)" fill="#ba3516"/>
      <rect id="Rectangle_22" data-name="Rectangle 22" width="2.74" height="2.74" transform="translate(0 27.097)" fill="#ba3516"/>
      <rect id="Rectangle_23" data-name="Rectangle 23" width="2.74" height="2.74" transform="translate(32.442 18.873)" fill="#931b19"/>
      <rect id="Rectangle_24" data-name="Rectangle 24" width="2.74" height="2.74" transform="translate(32.442 21.613)" fill="#931b19"/>
      <rect id="Rectangle_25" data-name="Rectangle 25" width="2.74" height="2.74" transform="translate(29.702 24.357)" fill="#ab1f21"/>
      <rect id="Rectangle_26" data-name="Rectangle 26" width="2.74" height="2.74" transform="translate(26.962 26.867)" fill="#ab1f21"/>
      <rect id="Rectangle_27" data-name="Rectangle 27" width="2.74" height="2.74" transform="translate(32.442 13.393)" fill="#931b19"/>
      <rect id="Rectangle_28" data-name="Rectangle 28" width="2.74" height="2.74" transform="translate(32.442 16.133)" fill="#931b19"/>
      <rect id="Rectangle_29" data-name="Rectangle 29" width="2.74" height="2.74" transform="translate(2.627 29.607)" fill="#ba3516"/>
      <path class="path" id="Path_6" data-name="Path 6" d="M513.2,345.482l16.733,10.906S527.39,345.364,513.2,345.482Z" transform="translate(-497.155 -345.459)" fill="#128038"/>
      <path class="path" id="Path_7" data-name="Path 7" d="M512.942,345.358l16.778,10.928S518.675,358.344,512.942,345.358Z" transform="translate(-496.944 -345.358)" fill="#3f9136"/>
    </g>
  </g>
</svg>
