<svg xmlns="http://www.w3.org/2000/svg" width="99.983" height="99.982" viewBox="0 0 99.983 99.982">
  <g id="recommended" transform="translate(0 0)">
    <g id="Group_31" data-name="Group 31" transform="translate(25.048 22.522)">
      <g id="Group_30" data-name="Group 30">
        <path id="Path_30" data-name="Path 30" d="M179.832,136.958a5.746,5.746,0,0,0-5.74-5.74H163.543a17.329,17.329,0,0,0,4.562-9.1,6.33,6.33,0,0,0-1.524-4.9,5.5,5.5,0,0,0-4.1-1.885h-.055a5.723,5.723,0,0,0-5.738,5.692,7.306,7.306,0,0,1-2.082,2.854,16.3,16.3,0,0,1-6.215,3.635,7.614,7.614,0,0,0-3.2,2.092,20.7,20.7,0,0,1-2.157,1.988,3.213,3.213,0,0,0-1.509-.376H131.5a3.239,3.239,0,0,0-3.235,3.235v26.718a3.239,3.239,0,0,0,3.235,3.235h10.019a3.237,3.237,0,0,0,2.829-1.67h25.566a4.9,4.9,0,0,0,4.223-7.4,4.9,4.9,0,0,0,1.67-6.68,4.9,4.9,0,0,0,1.5-6.949A5.74,5.74,0,0,0,179.832,136.958Zm-5.74,2.609h-.835a1.566,1.566,0,1,0,0,3.131,1.774,1.774,0,0,1,0,3.549h-1.67a1.566,1.566,0,1,0,0,3.131,1.774,1.774,0,1,1,0,3.549h-1.67a1.566,1.566,0,1,0,0,3.131,1.774,1.774,0,0,1,0,3.549h-25.16V144.473a1.566,1.566,0,1,0-3.131,0v16.7a.1.1,0,0,1-.1.1H131.5a.1.1,0,0,1-.1-.1V134.453a.1.1,0,0,1,.1-.1h10.019a.1.1,0,0,1,.1.1v3.34a1.566,1.566,0,1,0,3.131,0v-3.34c0-.076-.006-.15-.012-.225a23.77,23.77,0,0,0,2.725-2.479,4.525,4.525,0,0,1,1.883-1.258,19.34,19.34,0,0,0,7.6-4.528c1.794-1.761,2.865-3.6,2.865-4.912a2.561,2.561,0,0,1,.763-1.833,2.625,2.625,0,0,1,1.87-.755,2.385,2.385,0,0,1,1.792.832,3.239,3.239,0,0,1,.753,2.475c-.342,3.111-2.83,6.956-6.338,9.8a1.565,1.565,0,0,0,.985,2.782h14.453a2.609,2.609,0,0,1,0,5.218Z" transform="translate(-128.267 -115.333)" fill="#3cb2aa"/>
      </g>
    </g>
    <g id="Group_33" data-name="Group 33" transform="translate(31.719 61.768)">
      <g id="Group_32" data-name="Group 32">
        <path id="Path_31" data-name="Path 31" d="M164,316.306a1.574,1.574,0,1,0,1.574,1.574A1.58,1.58,0,0,0,164,316.306Z" transform="translate(-162.43 -316.306)" fill="#3cb2aa"/>
      </g>
    </g>
    <g id="Group_35" data-name="Group 35" transform="translate(0 0)">
      <g id="Group_34" data-name="Group 34">
        <path id="Path_32" data-name="Path 32" d="M97.192,49.992l2.689-7.117a1.565,1.565,0,0,0-.243-1.532l-4.757-5.937.359-7.6a1.565,1.565,0,0,0-.7-1.382l-6.359-4.177L86.17,14.909a1.565,1.565,0,0,0-1.1-1.1l-7.338-2.007L73.558,5.447a1.567,1.567,0,0,0-1.382-.7l-7.6.359L58.64.344A1.566,1.566,0,0,0,57.107.1L49.991,2.791,42.875.1a1.565,1.565,0,0,0-1.532.243L35.405,5.1l-7.6-.359a1.562,1.562,0,0,0-1.382.7l-4.177,6.359-7.338,2.007a1.565,1.565,0,0,0-1.1,1.1L11.8,22.248,5.446,26.424a1.565,1.565,0,0,0-.7,1.382l.359,7.6L.344,41.343A1.566,1.566,0,0,0,.1,42.875L2.79,49.992.1,57.108A1.565,1.565,0,0,0,.344,58.64L5.1,64.577l-.359,7.6a1.566,1.566,0,0,0,.7,1.382L11.8,77.736l2.007,7.338a1.565,1.565,0,0,0,1.1,1.1l7.338,2.007,4.177,6.359a1.57,1.57,0,0,0,1.382.7l7.6-.359,5.937,4.757a1.565,1.565,0,0,0,1.532.243l7.117-2.689,7.117,2.689a1.566,1.566,0,0,0,1.532-.243l5.937-4.757,7.6.359a1.567,1.567,0,0,0,1.382-.7l4.177-6.359,7.338-2.007a1.565,1.565,0,0,0,1.1-1.1l2.007-7.338,6.359-4.177a1.565,1.565,0,0,0,.7-1.382l-.359-7.6,4.757-5.937a1.566,1.566,0,0,0,.243-1.532Zm-3.138.553,2.583,6.835-4.568,5.7a1.565,1.565,0,0,0-.342,1.053l.344,7.3-6.107,4.011a1.565,1.565,0,0,0-.651.9l-1.928,7.047-7.047,1.928a1.566,1.566,0,0,0-.9.651l-4.011,6.107-7.3-.344a1.567,1.567,0,0,0-1.053.342l-5.7,4.568-6.835-2.583a1.567,1.567,0,0,0-1.107,0L42.6,96.637l-5.7-4.568a1.568,1.568,0,0,0-1.053-.342l-7.3.344-4.011-6.107a1.565,1.565,0,0,0-.9-.651L16.6,83.386l-1.928-7.047a1.566,1.566,0,0,0-.651-.9L7.911,71.432l.344-7.3a1.565,1.565,0,0,0-.342-1.053l-4.568-5.7,2.583-6.835a1.566,1.566,0,0,0,0-1.107L3.345,42.6l4.568-5.7a1.565,1.565,0,0,0,.342-1.053l-.344-7.3,6.107-4.011a1.565,1.565,0,0,0,.651-.9L16.6,16.6l7.047-1.928a1.566,1.566,0,0,0,.9-.651L28.55,7.912l7.3.344A1.567,1.567,0,0,0,36.9,7.914l5.7-4.568,6.835,2.583a1.566,1.566,0,0,0,1.107,0l6.835-2.583,5.7,4.568a1.564,1.564,0,0,0,1.053.342l7.3-.344,4.011,6.107a1.566,1.566,0,0,0,.9.651L83.386,16.6l1.928,7.047a1.566,1.566,0,0,0,.651.9l6.107,4.011-.344,7.3a1.565,1.565,0,0,0,.342,1.053l4.568,5.7-2.583,6.835A1.567,1.567,0,0,0,94.054,50.545Z" transform="translate(0 0)" fill="#3cb2aa"/>
      </g>
    </g>
    <g id="Group_37" data-name="Group 37" transform="translate(74.327 20.092)">
      <g id="Group_36" data-name="Group 36">
        <path id="Path_33" data-name="Path 33" d="M385.7,105.757c-.39-.424-.794-.846-1.2-1.254s-.83-.812-1.254-1.2a1.565,1.565,0,1,0-2.117,2.306c.391.359.781.732,1.157,1.109s.749.766,1.109,1.157a1.566,1.566,0,0,0,2.307-2.117Z" transform="translate(-380.623 -102.89)" fill="#3cb2aa"/>
      </g>
    </g>
    <g id="Group_39" data-name="Group 39" transform="translate(9.968 10.001)">
      <g id="Group_38" data-name="Group 38">
        <path id="Path_34" data-name="Path 34" d="M112.471,57.444A39.978,39.978,0,0,0,60.4,116.885a1.565,1.565,0,0,0,2.4-2.016,36.848,36.848,0,0,1,47.988-54.785,1.566,1.566,0,0,0,1.683-2.641Z" transform="translate(-51.047 -51.212)" fill="#3cb2aa"/>
      </g>
    </g>
    <g id="Group_41" data-name="Group 41" transform="translate(23.68 27.795)">
      <g id="Group_40" data-name="Group 40">
        <path id="Path_35" data-name="Path 35" d="M181.264,143.057a1.565,1.565,0,1,0-2.641,1.682,36.847,36.847,0,0,1-54.784,47.989,1.565,1.565,0,0,0-2.016,2.4,39.818,39.818,0,0,0,25.692,9.357q.817,0,1.638-.033a39.981,39.981,0,0,0,32.11-61.391Z" transform="translate(-121.266 -142.332)" fill="#3cb2aa"/>
      </g>
    </g>
  </g>
</svg>
