<svg xmlns="http://www.w3.org/2000/svg" width="412.677" height="199.961" viewBox="0 0 412.677 199.961">
  <g id="Group_62" data-name="Group 62" transform="translate(411.677 1) rotate(90)">
    <rect id="Rectangle_141" data-name="Rectangle 141" width="197.961" height="410.678" rx="43.531" fill="rgba(245,245,245,0.75)" stroke="#3cb2aa" stroke-miterlimit="10" stroke-width="2"/>
    <rect id="Rectangle_142" data-name="Rectangle 142" width="197.961" height="336.903" transform="translate(0 36.887)" fill="rgba(245,245,245,0.75)" stroke="#3cb2aa" stroke-miterlimit="10" stroke-width="2"/>
    <path id="Path_85" data-name="Path 85" d="M46.275,4.3H2.152A2.152,2.152,0,0,1,0,2.152H0A2.152,2.152,0,0,1,2.152,0H46.275a2.152,2.152,0,0,1,2.152,2.152h0A2.152,2.152,0,0,1,46.275,4.3Z" transform="translate(72.308 15.37)" fill="rgba(245,245,245,0.75)" stroke="#3cb2aa" stroke-miterlimit="10" stroke-width="2"/>
    <rect id="Rectangle_143" data-name="Rectangle 143" width="43.035" height="4.422" rx="2.211" transform="translate(77.463 389.408)" fill="rgba(245,245,245,0.75)" stroke="#3cb2aa" stroke-miterlimit="10" stroke-width="2" opacity="0.73"/>
    <g id="Group_60" data-name="Group 60" transform="translate(127.812 12.428)">
      <path id="Path_86" data-name="Path 86" d="M9.017,4.508A4.509,4.509,0,1,1,4.508,0,4.509,4.509,0,0,1,9.017,4.508Z" fill="rgba(245,245,245,0.75)" stroke="#3cb2aa" stroke-miterlimit="10" stroke-width="2"/>
    </g>
    <g id="Group_61" data-name="Group 61" transform="translate(130.496 15.046)">
      <ellipse id="Ellipse_5" data-name="Ellipse 5" cx="1.857" cy="1.857" rx="1.857" ry="1.857" fill="rgba(245,245,245,0.75)" stroke="#3cb2aa" stroke-miterlimit="10" stroke-width="2"/>
      <path id="Path_89" data-name="Path 89" d="M3.3,1.652A1.652,1.652,0,1,1,1.652,0,1.652,1.652,0,0,1,3.3,1.652Z" transform="translate(0.218 0.192)" fill="rgba(245,245,245,0.75)" stroke="#3cb2aa" stroke-miterlimit="10" stroke-width="2"/>
      <path id="Path_90" data-name="Path 90" d="M2.895,1.447A1.447,1.447,0,1,1,1.447,0,1.447,1.447,0,0,1,2.895,1.447Z" transform="translate(0.436 0.384)" fill="rgba(245,245,245,0.75)" stroke="#3cb2aa" stroke-miterlimit="10" stroke-width="2"/>
    </g>
  </g>
</svg>
