<svg xmlns="http://www.w3.org/2000/svg" width="44.444" height="40" viewBox="0 0 44.444 40">
  <path id="suitcase" d="M42.222,6.667h-9.63V3.7a3.708,3.708,0,0,0-3.7-3.7H15.555a3.708,3.708,0,0,0-3.7,3.7V6.667H2.222A2.222,2.222,0,0,0,0,8.889V25.377a2.232,2.232,0,0,0,1.481,2.091V37.778A2.222,2.222,0,0,0,3.7,40H40.741a2.222,2.222,0,0,0,2.222-2.222V27.47a2.233,2.233,0,0,0,1.481-2.092V8.889a2.222,2.222,0,0,0-2.222-2.222ZM13.333,3.7a2.222,2.222,0,0,1,2.222-2.222H28.889A2.222,2.222,0,0,1,31.111,3.7V6.667H29.63V3.7a.741.741,0,0,0-.741-.741H15.555a.741.741,0,0,0-.741.741V6.667H13.333ZM28.148,6.667H16.3V4.444H28.148ZM41.481,37.778a.741.741,0,0,1-.741.741H3.7a.741.741,0,0,1-.741-.741V27.723l16.3,2.248v1.881a2.222,2.222,0,0,0,2.222,2.222h1.481a2.222,2.222,0,0,0,2.222-2.222V29.971l16.3-2.248ZM23.7,31.852a.741.741,0,0,1-.741.741H21.481a.741.741,0,0,1-.741-.741V27.407a.741.741,0,0,1,.741-.741h1.481a.741.741,0,0,1,.741.741Zm19.259-6.474a.741.741,0,0,1-.637.734l-.205.028L25.185,28.475V27.407a2.222,2.222,0,0,0-2.222-2.222H21.481a2.222,2.222,0,0,0-2.222,2.222v1.068L2.119,26.112a.741.741,0,0,1-.638-.734V8.889a.741.741,0,0,1,.741-.741h40a.741.741,0,0,1,.741.741Zm0,0" transform="translate(0)" fill="#484848"/>
</svg>
