<svg xmlns="http://www.w3.org/2000/svg" xmlns:xlink="http://www.w3.org/1999/xlink" width="1944.789" height="784.572" viewBox="0 0 1944.789 784.572">
  <defs>
    <clipPath id="clip-path">
      <rect id="Rectangle_218" data-name="Rectangle 218" width="1944.789" height="784.572" transform="translate(-24.395 1647.265)" fill="#f68815"/>
    </clipPath>
    <linearGradient id="linear-gradient" y1="0.5" x2="1" y2="0.5" gradientUnits="objectBoundingBox">
      <stop offset="0" stop-color="#ffbf00" stop-opacity="0.478"/>
      <stop offset="0.268" stop-color="#ff5515" stop-opacity="0.478"/>
      <stop offset="0.616" stop-color="#b520b3" stop-opacity="0.478"/>
      <stop offset="1" stop-color="#0068e5" stop-opacity="0.478"/>
    </linearGradient>
    <linearGradient id="linear-gradient-2" y1="0.5" x2="1" y2="0.5" gradientUnits="objectBoundingBox">
      <stop offset="0" stop-color="#ffbf00"/>
      <stop offset="0.268" stop-color="#ff9700"/>
      <stop offset="0.616" stop-color="#ff5515"/>
      <stop offset="1" stop-color="#b520b3"/>
    </linearGradient>
    <linearGradient id="linear-gradient-3" y1="0.5" x2="1" y2="0.5" gradientUnits="objectBoundingBox">
      <stop offset="0" stop-color="#ffbf00" stop-opacity="0.278"/>
      <stop offset="0.268" stop-color="#ff9700" stop-opacity="0.278"/>
      <stop offset="0.616" stop-color="#ff5515" stop-opacity="0.278"/>
      <stop offset="1" stop-color="#4d00e2" stop-opacity="0.278"/>
    </linearGradient>
  </defs>
  <g id="Mask_Group_3" data-name="Mask Group 3" transform="translate(24.395 -1647.265)" clip-path="url(#clip-path)">
    <g id="Group_256" data-name="Group 256" transform="translate(43.899 1632.763)">
      <path id="Path_1" data-name="Path 1" d="M-43.892,307.637c0-.852,210.854-25.721,365.661,113.718C476.575,564.447,428.818,791.388,660.658,690.2c134.761-55.978,221.72-139.532,310.731-201.058,89.012-60.157,180.076-98.283,323.049-31.78,133.113,63.625,165.621,173.765,198.947,264.476,33.325,91.124,67.466,162.817,203.842,159.089,213.076-8.393,325.635-213.895,325.635-212.356v514.791H1515.379c0-1.333-77.033-15.321-160.349-65.3-83.314-49.54-172.913-135.067-198.048-269.394-64.145-339.288-234.563,73.061-522.333,133.119-143.886,30.189-240.965-33.605-321.4-103.9C232.812,807.016,169.016,729.64,91.7,719.034c-46.61-6.627-93.221,3.737-135.6,22.25" transform="translate(0)" fill="url(#linear-gradient)"/>
      <path id="Path_2" data-name="Path 2" d="M-43.892,451.738S166.962,424.353,321.769,569.1,428.818,905.218,660.658,806.773c269.522-114.445,347.833-335.759,633.781-241.586,266.222,87.677,130.037,340.349,402.788,340.349,213.079,0,325.635-146.051,325.635-146.051v438.935H1515.378s-308.129-74.874-358.4-300.708c-64.147-288.188-234.563,93.89-522.333,148.659S246.335,861.876,91.7,824.047c-46.611-11.4-93.221-10.036-135.6-2.562" transform="translate(0 -15.059)" opacity="0.28" fill="url(#linear-gradient-2)"/>
      <path id="Path_3" data-name="Path 3" d="M1355.031,1147.023a894.008,894.008,0,0,0,92.525,52.864h575.306v-554.5c0-1.719-28.139,72.845-82.913,145.961-54.772,73.622-136.182,145.795-242.721,150.961-136.375,3.683-170.518-71.87-203.842-173.689-33.325-100.02-65.835-226.3-198.946-282.572-142.973-56.328-234.038,4.417-323.049,66.022C882.378,616.9,795.419,682.58,660.658,710.437c-115.921,23.778-161.941-.979-198.333-40.025-36.392-38.617-63.153-91.525-140.557-114.135-77.4-20.613-168.819-9.293-240.884,1.5C8.82,569.515-43.892,580.724-43.892,581.907l-.007,163.67c42.375-15.8,88.986-28.017,135.6-30.05,77.319-3.953,141.115,32.689,221.551,82.056,80.436,47.694,177.515,108.113,321.4,113.1,71.942,1.151,136.551-11.957,194-34.328,57.445-21.924,107.731-53.112,151.028-77.815,86.594-49.563,145.234-70.834,177.307,89.866C1182.116,1009.722,1271.715,1091.754,1355.031,1147.023Z" transform="translate(0 -16.525)" fill="url(#linear-gradient-3)"/>
    </g>
  </g>
</svg>
